<?xml version="1.0" encoding="UTF-8" standalone="no"?>
<!-- Uploaded to: SVG Repo, www.svgrepo.com, Generator: SVG Repo Mixer Tools -->

<svg
   fill="#000000"
   width="800px"
   height="800px"
   viewBox="0 0 512 512"
   version="1.1"
   id="svg16"
   sodipodi:docname="icon.svg"
   inkscape:version="1.2.2 (732a01da63, 2022-12-09)"
   xml:space="preserve"
   inkscape:export-filename="icon.png"
   inkscape:export-xdpi="491.51999"
   inkscape:export-ydpi="491.51999"
   xmlns:inkscape="http://www.inkscape.org/namespaces/inkscape"
   xmlns:sodipodi="http://sodipodi.sourceforge.net/DTD/sodipodi-0.dtd"
   xmlns="http://www.w3.org/2000/svg"
   xmlns:svg="http://www.w3.org/2000/svg"
   xmlns:rdf="http://www.w3.org/1999/02/22-rdf-syntax-ns#"
   xmlns:cc="http://creativecommons.org/ns#"
   xmlns:dc="http://purl.org/dc/elements/1.1/"><defs
     id="defs20" /><sodipodi:namedview
     id="namedview18"
     pagecolor="#ffffff"
     bordercolor="#000000"
     borderopacity="0.25"
     inkscape:showpageshadow="2"
     inkscape:pageopacity="0.0"
     inkscape:pagecheckerboard="0"
     inkscape:deskcolor="#d1d1d1"
     showgrid="false"
     inkscape:zoom="1.03"
     inkscape:cx="400"
     inkscape:cy="400.97087"
     inkscape:window-width="1920"
     inkscape:window-height="1027"
     inkscape:window-x="-8"
     inkscape:window-y="-8"
     inkscape:window-maximized="1"
     inkscape:current-layer="svg16" /><title
     id="title12">ionicons-v5-m</title><path
     id="path14"
     style="stroke-width:1.23077;fill-opacity:1;fill:#a27b5c"
     d="M 293.23125 3.23125 A 12.861537 12.861537 0 0 0 278.76875 12.055 L 268.3075 42.59125 A 6.6707687 6.6707687 0 0 1 261.71125 47.08375 L 249.71125 47.08375 A 6.8061533 6.8061533 0 0 1 243.1875 42.56625 L 232.775 12.20375 A 12.873845 12.873845 0 0 0 218.28875 3.28 L 204.185 5.74125 A 12.873845 12.873845 0 0 0 193.6375 19.02125 L 194.12875 51.21875 A 6.7076918 6.7076918 0 0 1 189.37875 57.68 C 186.57259 58.775382 180.44298 61.101348 177.67375 62.1475 C 175.21221 63.033651 172.51644 62.062204 170.28875 59.56375 L 150.2775 34.9475 A 12.676922 12.676922 0 0 0 133.7725 31.39125 L 121.39125 38.56625 A 12.750768 12.750768 0 0 0 116.07375 54.775 L 127.45875 84.7325 A 6.818461 6.818461 0 0 1 125.36625 92.4 C 122.37548 94.861536 119.31106 97.322692 116.25875 100.055 A 6.621538 6.621538 0 0 1 108.4425 100.84375 L 81.23125 83.99375 A 12.787691 12.787691 0 0 0 64.48 86.455 L 55.3725 97.40875 A 12.701537 12.701537 0 0 0 55.8275 114.345 L 76.86125 138.4675 A 6.6707687 6.6707687 0 0 1 77.415 146.40625 C 75.310387 149.75395 73.304036 153.27375 71.4825 156.79375 A 6.8061533 6.8061533 0 0 1 64.27125 160.265 L 32.87375 154.1975 A 12.726153 12.726153 0 0 0 17.9325 162.20875 L 13.00875 175.6 A 12.763076 12.763076 0 0 0 19.1625 191.415 L 47.2 206.985 A 6.6338456 6.6338456 0 0 1 50.46125 214.27125 L 50.17875 215.7975 C 49.526445 219.24365 48.947211 222.50423 48.36875 225.975 A 6.7446149 6.7446149 0 0 1 42.88 231.68625 L 11.24875 236.79375 A 12.824614 12.824614 0 0 0 0 249.43375 L 0 263.68625 A 12.627691 12.627691 0 0 0 11.27375 276.31375 L 42.88 281.40875 A 6.658461 6.658461 0 0 1 48.41875 287.1575 C 49.021826 291.04673 49.649713 295.05837 50.51125 298.87375 A 6.7938456 6.7938456 0 0 1 47.27375 306.07375 L 19.24875 321.6675 A 12.738461 12.738461 0 0 0 13.095 337.45875 L 18.01875 350.87375 A 12.713845 12.713845 0 0 0 32.9475 358.88625 L 64.39375 352.79375 A 6.7692302 6.7692302 0 0 1 71.5575 356.2525 C 73.403652 359.69865 75.39731 363.19346 77.465 366.615 A 6.8676918 6.8676918 0 0 1 76.9225 374.615 L 56 398.7875 A 12.812307 12.812307 0 0 0 55.385 415.72375 L 64.505 426.68875 A 12.603076 12.603076 0 0 0 81.21875 429.15125 L 108.75125 412.62125 A 6.6338456 6.6338456 0 0 1 116.615 413.3975 C 119.66731 416.06827 122.76933 418.63962 125.68625 421.015 A 6.7076918 6.7076918 0 0 1 127.8025 428.65875 L 116.40625 458.68875 A 12.738461 12.738461 0 0 0 121.71125 474.775 L 134.15375 481.96375 A 12.676922 12.676922 0 0 0 150.7075 478.4925 L 171.0775 453.44625 C 172.78827 451.31702 175.50779 450.36895 177.52625 451.18125 C 181.79702 452.95356 184.66443 453.95029 189.7475 455.64875 A 6.6953841 6.6953841 0 0 1 194.3625 462.08625 L 193.87125 494.1475 A 12.923076 12.923076 0 0 0 204.41875 507.53875 L 218.51125 510 A 12.84923 12.84923 0 0 0 232.9725 501.175 L 243.43375 470.68875 A 6.7446149 6.7446149 0 0 1 250.03125 466.1975 L 262.03125 466.1975 A 6.7938456 6.7938456 0 0 1 268.55375 470.71375 L 278.97875 501.0775 A 12.898461 12.898461 0 0 0 291.28625 510.1975 A 11.987691 11.987691 0 0 0 293.4775 510 L 307.59375 507.53875 A 12.873845 12.873845 0 0 0 318.12875 494.25875 L 317.6375 462.06125 A 6.6830764 6.6830764 0 0 1 322.2525 455.66125 C 326.97866 454.07356 330.28951 452.79375 333.21875 451.67375 L 333.9575 451.37875 C 337.72365 450.07413 339.53183 451.55125 340.68875 452.99125 L 361.305 478.38125 A 12.676922 12.676922 0 0 0 377.84625 481.8525 L 390.24 474.6775 A 12.738461 12.738461 0 0 0 395.545 458.55375 L 384.1725 428.5975 A 6.7938456 6.7938456 0 0 1 386.2525 420.92875 C 389.24327 418.46721 392.30769 416.00605 395.36 413.27375 A 6.6338456 6.6338456 0 0 1 403.2125 412.51125 L 430.76875 429.00375 A 12.787691 12.787691 0 0 0 447.52 426.54125 L 456.6275 415.5875 A 12.68923 12.68923 0 0 0 456.1725 398.665 L 435.175 374.455 A 6.6707687 6.6707687 0 0 1 434.62125 366.5175 C 436.72587 363.18211 438.73221 359.66106 440.55375 356.12875 A 6.8430764 6.8430764 0 0 1 447.76625 352.65875 L 479.12625 358.775 A 12.726153 12.726153 0 0 0 494.0675 350.76375 L 498.92875 337.3725 A 12.750768 12.750768 0 0 0 492.775 321.56875 L 464.71375 305.975 A 6.6461533 6.6461533 0 0 1 461.50125 298.72625 L 461.785 297.1875 C 462.43731 293.74135 463.01529 290.49202 463.59375 287.02125 A 6.7446149 6.7446149 0 0 1 469.0825 281.31125 L 500.71375 276.215 A 12.836922 12.836922 0 0 0 512 263.56375 L 512 249.15125 A 13.021537 13.021537 0 0 0 500.48 236.9175 L 468.9225 231.80875 A 6.6707687 6.6707687 0 0 1 463.385 226.06125 C 462.78192 222.18433 462.15404 218.16038 461.2925 214.345 A 6.7938456 6.7938456 0 0 1 464.52875 207.145 L 492.56625 191.575 A 12.738461 12.738461 0 0 0 498.72 175.785 L 493.85875 162.36875 A 12.701537 12.701537 0 0 0 478.92875 154.3575 L 447.4825 160.51125 A 6.7692302 6.7692302 0 0 1 440.32 157.0525 C 438.48615 153.61865 436.4925 150.1226 434.4125 146.68875 A 6.8923072 6.8923072 0 0 1 434.95375 138.68875 L 455.8775 114.52875 A 12.84923 12.84923 0 0 0 456.3575 97.58125 L 447.225 86.615 A 12.603076 12.603076 0 0 0 430.51125 84.15375 L 402.97875 100.68375 A 6.6338456 6.6338456 0 0 1 395.11375 99.9075 C 392.07375 97.236734 389.02096 94.664132 386.0425 92.28875 A 6.7076918 6.7076918 0 0 1 383.92625 84.64625 L 395.3225 54.615 A 12.738461 12.738461 0 0 0 390.01875 38.52875 L 377.6125 31.32875 A 12.68923 12.68923 0 0 0 361.04625 34.8125 L 340.9225 60.04375 A 5.6369226 5.6369226 0 0 1 334.03125 62.16 C 333.26818 61.852308 326.92913 59.255478 321.99375 57.60625 A 6.6707687 6.6707687 0 0 1 317.39125 51.16875 L 317.87125 19.08375 A 12.898461 12.898461 0 0 0 307.3225 5.6925 L 293.23125 3.23125 z M 256 90.27875 A 166.34229 166.34229 0 0 1 422.34125 256.62 A 166.34229 166.34229 0 0 1 418.74 289.06875 C 418.51755 290.19098 418.25744 291.29971 418.0125 292.41375 A 166.34229 166.34229 0 0 1 412.865 310.83125 C 411.98281 313.38782 411.03911 315.91503 410.0375 318.41375 A 166.34229 166.34229 0 0 1 403.0525 333.51875 C 402.05762 335.42189 401.03414 337.30715 399.96875 339.16625 A 166.34229 166.34229 0 0 1 390.805 353.405 C 389.46448 355.27507 388.08734 357.1151 386.6725 358.92625 A 166.34229 166.34229 0 0 1 379.62875 367.13625 C 381.61011 362.90714 382.52406 358.11703 381.9775 353.1825 C 368.88035 236.23181 275.68031 143.10272 158.49 130.03 C 154.74131 129.60909 151.09079 130.00694 147.71875 131.07 A 166.34229 166.34229 0 0 1 152.0275 127.19375 A 166.30153 166.30153 0 0 1 152.72625 126.56625 L 152.7675 126.64 A 166.34229 166.34229 0 0 1 197.21375 101.46125 L 197.05875 101.1875 A 164.76306 164.76306 0 0 1 204.8975 98.5975 A 166.34229 166.34229 0 0 1 210.7225 96.66875 A 164.76306 164.76306 0 0 1 229.55875 92.5725 A 166.34229 166.34229 0 0 1 235.7075 91.72875 A 164.76306 164.76306 0 0 1 253.9675 90.42375 A 166.34229 166.34229 0 0 1 256 90.27875 z M 130.95375 147.8575 C 130.26612 150.1267 129.86375 152.52512 129.86375 155.0375 L 129.86375 178.75625 C 231.19564 178.75625 332.8825 280.98913 332.8825 382.135 L 356.645 382.135 C 360.49359 382.135 364.12158 381.24196 367.37125 379.67 A 166.34229 166.34229 0 0 1 360.5525 385.61125 C 356.98349 388.52254 353.29145 391.28252 349.48625 393.89375 A 166.34229 166.34229 0 0 1 342.6925 398.325 C 337.68881 401.4112 332.51632 404.24468 327.18125 406.795 A 166.34229 166.34229 0 0 1 323.02625 408.705 C 316.99246 411.38653 310.76686 413.70388 304.3825 415.65875 A 166.34229 166.34229 0 0 1 301.71875 416.47375 C 294.91392 418.43152 287.92871 419.9492 280.79875 421.025 A 166.34229 166.34229 0 0 1 278.985 421.31875 C 271.81004 422.31946 264.48376 422.83966 257.04875 422.88625 A 166.34229 166.34229 0 0 1 256 422.96125 A 166.34229 166.34229 0 0 1 254.0525 422.82375 A 164.61537 164.61537 0 0 1 235.62625 421.505 A 166.34229 166.34229 0 0 1 229.48625 420.65125 A 164.61537 164.61537 0 0 1 210.4425 416.50875 A 166.34229 166.34229 0 0 1 205.03375 414.695 A 164.61537 164.61537 0 0 1 196.32 411.7725 L 196.475 411.50375 A 166.34229 166.34229 0 0 1 152.14125 386.13125 L 152.11125 386.185 A 166.30153 166.30153 0 0 1 151.62875 385.7475 A 166.34229 166.34229 0 0 1 142.315 377.28875 C 146.17138 379.65769 150.69385 381.04875 155.55125 381.04875 L 180.885 381.04875 C 180.885 353.10713 158.2117 330.475 130.21875 330.475 L 130.21875 355.7625 C 130.21875 360.47805 131.53791 364.87784 133.7925 368.6575 A 166.34229 166.34229 0 0 1 125.12625 358.6575 A 166.30153 166.30153 0 0 1 123.5225 356.515 A 166.34229 166.34229 0 0 1 89.6575 256.62 A 166.34229 166.34229 0 0 1 90.3875 246.41125 A 166.30153 166.30153 0 0 1 90.405 246.16 A 166.34229 166.34229 0 0 1 124.07125 155.99375 A 166.30153 166.30153 0 0 1 125.45375 154.14375 A 166.34229 166.34229 0 0 1 130.95375 147.8575 z M 129.86375 229.32875 L 129.86375 279.9025 C 185.74829 279.9025 231.19625 331.56206 231.19625 382.135 L 281.8625 382.135 C 281.8625 306.27435 213.81724 229.32875 129.86375 229.32875 z " /><metadata
     id="metadata2831"><rdf:RDF><cc:Work
         rdf:about=""><dc:title>ionicons-v5-m</dc:title></cc:Work></rdf:RDF></metadata></svg>
